<svg width="14" height="18" viewBox="0 0 14 18" fill="none" xmlns="http://www.w3.org/2000/svg">
<path d="M2.00016 17.3333C1.54183 17.3333 1.14947 17.1701 0.823079 16.8437C0.496691 16.5173 0.333496 16.125 0.333496 15.6666V2.33329C0.333496 1.87496 0.496691 1.4826 0.823079 1.15621C1.14947 0.82982 1.54183 0.666626 2.00016 0.666626H12.0002C12.4585 0.666626 12.8509 0.82982 13.1772 1.15621C13.5036 1.4826 13.6668 1.87496 13.6668 2.33329V15.6666C13.6668 16.125 13.5036 16.5173 13.1772 16.8437C12.8509 17.1701 12.4585 17.3333 12.0002 17.3333H2.00016ZM2.00016 15.6666H12.0002V2.33329H10.3335V8.16663L8.25016 6.91663L6.16683 8.16663V2.33329H2.00016V15.6666Z" fill="#4B2771"/>
</svg>
