<svg width="49" height="48" viewBox="0 0 49 48" fill="none" xmlns="http://www.w3.org/2000/svg">
<path d="M17.5005 44.3011C17.3755 44.3011 17.2524 44.2718 17.1411 44.2152L3.80908 37.5512C3.5376 37.4144 3.36572 37.1371 3.36572 36.8344V10.1664C3.36572 9.88903 3.51025 9.63122 3.74463 9.48472C3.98096 9.34019 4.27588 9.32652 4.52393 9.44957L14.3539 14.3656C14.6918 14.5257 14.8754 14.8988 14.7934 15.264C14.7114 15.6293 14.3871 15.889 14.0121 15.889C13.8891 15.889 13.766 15.8597 13.6547 15.805L4.96721 11.4613V36.3403L16.6997 42.2053V25.1508C16.6997 24.7094 17.0591 24.35 17.5005 24.35C17.9419 24.35 18.2994 24.7094 18.2994 25.1508V43.5003C18.2994 43.7132 18.2154 43.9163 18.065 44.0667C17.9165 44.2151 17.7114 44.3011 17.5005 44.3011Z" fill="#ED5D41" stroke="#ED5D41" stroke-width="0.2"/>
<path d="M17.5005 44.3009C17.0591 44.3009 16.6997 43.9415 16.6997 43.5001V25.1506C16.6997 24.7092 17.0591 24.3498 17.5005 24.3498C17.9419 24.3498 18.2994 24.7092 18.2994 25.1506V41.5686L30.0339 29.8361V5.43161L23.1844 12.2811H23.1824C22.8738 12.5956 22.3699 12.5995 22.0555 12.2928C21.739 11.9862 21.7312 11.4823 22.0359 11.1659C22.0418 11.16 22.0457 11.1561 22.0496 11.1522L30.2666 2.93321C30.4951 2.7047 30.8408 2.63634 31.1396 2.75938C31.4385 2.88438 31.6338 3.1754 31.6338 3.49963V30.1656C31.6338 30.3785 31.5498 30.5816 31.3994 30.732L18.0674 44.066C17.917 44.2145 17.7139 44.3004 17.501 44.3004L17.5005 44.3009Z" fill="#ED5D41" stroke="#ED5D41" stroke-width="0.2"/>
<path d="M44.1665 37.6329C44.0415 37.6329 43.9204 37.6055 43.8091 37.5489L30.4751 30.8829C30.2036 30.7462 30.0337 30.4688 30.0337 30.1661V3.5001C30.0337 3.22276 30.1763 2.96495 30.4126 2.8204C30.6489 2.67392 30.9438 2.66025 31.1919 2.78525L44.5239 9.44925C44.7954 9.58597 44.9673 9.86331 44.9673 10.166V36.834C44.9673 37.045 44.8813 37.2501 44.7329 37.3985C44.5825 37.5489 44.3794 37.6329 44.1665 37.6329ZM31.6335 29.6719L43.366 35.5389V10.6599L31.6335 4.79489V29.6719Z" fill="#ED5D41" stroke="#ED5D41" stroke-width="0.2"/>
<path d="M17.5003 22.3556C17.2054 22.3556 16.9359 22.1935 16.7952 21.9337L12.1722 13.3612C11.1507 11.4843 11.1878 9.20886 12.2679 7.36521C13.3108 5.54296 15.2327 4.39841 17.3304 4.34961C17.4437 4.3457 17.555 4.3457 17.6683 4.34961C19.7679 4.39844 21.6878 5.54296 22.7308 7.36521C23.8109 9.20896 23.848 11.4844 22.8265 13.3612L18.2034 21.9337C18.0648 22.1935 17.7933 22.3556 17.5003 22.3556ZM17.5003 5.94958H17.3714V5.94763C15.8285 5.98474 14.4183 6.82653 13.6527 8.16638C12.8538 9.52968 12.8265 11.2133 13.5804 12.6019L17.5003 19.8694L21.4202 12.6019C22.1741 11.2133 22.1448 9.52968 21.346 8.16638C20.5804 6.82848 19.1702 5.98668 17.6272 5.94958L17.5003 5.94958Z" fill="#ED5D41"/>
<path d="M21.4202 12.6019L17.5003 19.8694L13.5804 12.6019C12.8265 11.2133 12.8538 9.52968 13.6527 8.16638C14.4183 6.82653 15.8285 5.98474 17.3714 5.94763V5.94958H17.5003L17.6272 5.94958C19.1702 5.98668 20.5804 6.82848 21.346 8.16638C22.1448 9.52968 22.1741 11.2133 21.4202 12.6019ZM21.4202 12.6019L22.1233 12.9828M17.5003 22.3556C17.2054 22.3556 16.9359 22.1935 16.7952 21.9337L12.1722 13.3612C11.1507 11.4843 11.1878 9.20886 12.2679 7.36521C13.3108 5.54296 15.2327 4.39841 17.3304 4.34961C17.4437 4.3457 17.555 4.3457 17.6683 4.34961C19.7679 4.39844 21.6878 5.54296 22.7308 7.36521C23.8109 9.20896 23.848 11.4844 22.8265 13.3612L18.2034 21.9337C18.0648 22.1935 17.7933 22.3556 17.5003 22.3556Z" stroke="#ED5D41" stroke-width="0.2"/>
<path d="M17.5007 12.996C16.4479 12.996 15.5007 12.3612 15.0983 11.3905C14.696 10.4179 14.9186 9.30066 15.6608 8.55651C16.405 7.81236 17.5241 7.59166 18.4948 7.99401C19.4675 8.39636 20.1003 9.34361 20.1003 10.3944C20.1003 11.8319 18.9362 12.996 17.5007 12.996ZM17.5007 9.39637V9.39441C17.0964 9.39441 16.7311 9.63855 16.5768 10.0136C16.4206 10.3866 16.5065 10.8163 16.7936 11.1034C17.0788 11.3886 17.5085 11.4745 17.8835 11.3202C18.2565 11.164 18.5007 10.8007 18.5007 10.3944C18.4968 9.84556 18.0514 9.40026 17.5007 9.40026L17.5007 9.39637Z" fill="#ED5D41" stroke="#ED5D41" stroke-width="0.2"/>
<path d="M17.5005 25.9489C15.4595 25.9489 13.5279 25.5446 12.061 24.8122C10.4165 23.99 9.51611 22.8337 9.51611 21.5544C9.51611 19.488 11.9302 17.7751 15.5241 17.2927C15.737 17.2595 15.9538 17.3142 16.1257 17.4431C16.2975 17.572 16.4089 17.7634 16.4382 17.9763C16.4675 18.1892 16.4089 18.406 16.2761 18.5739C16.1452 18.7439 15.9518 18.8532 15.737 18.8786C13.1003 19.2321 11.1159 20.3825 11.1159 21.5544C11.1159 22.1853 11.7214 22.8513 12.778 23.3786C14.028 24.0017 15.7038 24.3474 17.5007 24.3474C20.5007 24.3474 22.6687 23.4021 23.4872 22.4646C23.7528 22.1618 23.8875 21.8532 23.8875 21.5544C23.8875 21.2536 23.7528 20.947 23.4872 20.6423C22.743 19.7927 21.1649 19.1326 19.2665 18.8767L19.2684 18.8787C19.0555 18.8533 18.8602 18.7439 18.7294 18.574C18.5965 18.406 18.538 18.1892 18.5672 17.9763C18.5965 17.7635 18.7079 17.5721 18.8797 17.4431C19.0516 17.3142 19.2684 17.2596 19.4813 17.2928C21.7879 17.6014 23.6883 18.4393 24.6943 19.5936C25.2138 20.1912 25.4892 20.869 25.4892 21.5584C25.4892 22.2479 25.2138 22.9256 24.6943 23.5213C23.3818 25.0174 20.6257 25.9489 17.5005 25.9489Z" fill="#ED5D41" stroke="#ED5D41" stroke-width="0.2"/>
</svg>
