<svg width="45" height="48" viewBox="0 0 45 48" fill="none" xmlns="http://www.w3.org/2000/svg">
<path d="M35.4552 31.4541C35.2815 31.5273 35.126 31.6005 34.9796 31.6737C34.9156 31.5456 34.8516 31.4084 34.7784 31.2895C34.193 30.3292 33.1686 29.7529 32.0345 29.7255C30.8546 29.7255 29.7753 30.2743 29.1259 31.2529L26.9126 34.6279C25.6137 34.4541 24.4705 34.2346 23.6381 34.0517C23.693 34.006 23.7387 33.9511 23.7936 33.9145C24.9278 32.9907 25.5131 31.6462 25.3759 30.3291C25.2753 29.4419 24.9186 28.756 24.3149 28.2803C23.5466 27.6858 22.4674 27.5029 21.0131 27.7224C20.318 27.823 19.6686 28.1066 19.1198 28.5364L11.5194 34.5183H9.80905V34.1982C9.80905 33.192 8.98591 32.3689 7.97978 32.3689H3.96452C2.95839 32.3689 2.13525 33.192 2.13525 34.1982V43.4358C2.13525 44.4419 2.95839 45.2651 3.96452 45.2651H7.97978C8.98591 45.2651 9.80905 44.4419 9.80905 43.4358V42.759L11.8212 43.2438C11.8944 43.2621 11.9676 43.2712 12.0408 43.2712H26.3547C26.4004 43.2712 26.4462 43.2712 26.4919 43.2621C29.4553 42.8047 34.495 41.8352 35.5557 40.5182L39.635 36.1828C40.7417 35.003 40.8515 33.2103 39.882 32.0212C39.2143 31.1889 37.8973 30.4206 35.4552 31.4541ZM30.6534 32.2682C30.9461 31.82 31.44 31.5639 31.9979 31.5639C32.5101 31.573 32.9492 31.82 33.2144 32.2499C33.2967 32.3779 33.3699 32.5243 33.4339 32.6798C32.9583 33.1005 32.6565 33.5121 32.4004 33.8505C31.8608 34.5822 31.5498 34.9938 28.9614 34.8383L30.6534 32.2682ZM7.97049 43.4358H3.95523V34.1981H7.97049V43.4358ZM38.2995 34.9298L34.1836 39.3018C34.1471 39.3384 34.1379 39.3567 34.1013 39.4024C33.5526 39.9786 29.6197 40.9207 26.2721 41.4512H12.1407L9.79928 40.8841V36.3567H11.8298C12.031 36.3567 12.2322 36.2835 12.3969 36.1646L20.2443 29.982C20.5461 29.7442 20.9028 29.5887 21.2778 29.5338C22.4303 29.36 22.9516 29.5429 23.1894 29.735C23.2625 29.7899 23.4912 29.9637 23.5461 30.5308C23.6193 31.235 23.2808 31.9667 22.6315 32.5064C22.229 32.8356 21.726 33.3387 21.2869 34.0155C21.2686 34.0338 21.2595 34.0612 21.2412 34.0887C20.6192 35.0673 20.1619 36.4027 20.3814 38.1496C20.4363 38.6161 20.8296 38.9545 21.2869 38.9545C21.3235 38.9545 21.3601 38.9545 21.4058 38.9454C21.9089 38.8813 22.2656 38.424 22.2016 37.921C22.0918 37.0247 22.229 36.2838 22.476 35.671C23.601 35.9545 25.8693 36.4484 28.4578 36.6404C32.1346 36.924 32.9578 36.1831 33.8724 34.9392C34.3023 34.3539 34.7505 33.7411 36.159 33.1466C37.284 32.671 38.0614 32.6801 38.4547 33.1831C38.848 33.6496 38.7751 34.4176 38.2995 34.9298Z" fill="#ED5D41"/>
<path d="M30.4798 23.4973C32.9859 23.4973 35.3457 22.5186 37.1202 20.7443C38.8948 18.9699 39.8733 16.6101 39.8733 14.1039C39.8733 11.5976 38.8946 9.23802 37.1202 7.46348C35.3459 5.68895 32.9861 4.71045 30.4798 4.71045C27.9736 4.71045 25.614 5.68912 23.8395 7.46348C22.0649 9.23784 21.0864 11.5976 21.0864 14.1039C21.0864 16.6101 22.0651 18.9789 23.8395 20.7443C25.6138 22.5278 27.9736 23.4973 30.4798 23.4973ZM25.1293 8.7531C26.5561 7.32627 28.4585 6.53972 30.4798 6.53972C32.5012 6.53972 34.4036 7.32633 35.8304 8.7531C37.2573 10.1799 38.0438 12.0824 38.0438 14.1037C38.0438 16.125 37.2572 18.0275 35.8304 19.4543C34.4037 20.8811 32.5012 21.6677 30.4798 21.6677C28.4585 21.6677 26.5561 20.8811 25.1293 19.4543C23.7024 18.0275 22.9159 16.125 22.9159 14.1037C22.9159 12.0824 23.7025 10.1891 25.1293 8.7531Z" fill="#ED5D41"/>
<path d="M30.4798 26.6524C33.8365 26.6524 36.9826 25.3444 39.3516 22.9756C41.7205 20.6067 43.0284 17.4603 43.0284 14.1038C43.0284 10.7472 41.7204 7.60095 39.3516 5.23198C36.9827 2.863 33.8363 1.55518 30.4798 1.55518C27.1232 1.55518 23.9769 2.86312 21.608 5.23198C19.239 7.60083 17.9312 10.7472 17.9312 14.1038C17.9312 17.4603 19.2391 20.6066 21.608 22.9756C23.9768 25.3446 27.1323 26.6524 30.4798 26.6524ZM22.9063 6.53043C24.9276 4.50911 27.6167 3.39322 30.4885 3.39322C33.3604 3.39322 36.0404 4.50905 38.0708 6.53043C40.0921 8.55176 41.208 11.2408 41.208 14.1127C41.208 16.9845 40.0922 19.6645 38.0708 21.6949C36.0495 23.7162 33.3604 24.8321 30.4885 24.8321C27.6167 24.8321 24.9367 23.7163 22.9063 21.6949C20.8759 19.6735 19.7691 16.9754 19.7691 14.1127C19.7691 11.2499 20.8758 8.5517 22.9063 6.53043Z" fill="#ED5D41"/>
<path d="M26.1445 12.8049C26.1445 13.3079 26.5561 13.7195 27.0592 13.7195H30.4616C30.1689 14.1311 29.6842 14.4055 29.1354 14.4055H27.0592C26.6933 14.4055 26.3549 14.625 26.2177 14.9726C26.0805 15.3201 26.1537 15.7043 26.4189 15.9695L30.8458 20.3963C31.0287 20.5793 31.2573 20.6616 31.4952 20.6616C31.733 20.6616 31.9616 20.5701 32.1446 20.3963C32.5013 20.0396 32.5013 19.4634 32.1446 19.1067L29.2726 16.2348C30.791 16.1799 32.0531 15.1281 32.4556 13.7195H34.7421C35.2452 13.7195 35.6568 13.308 35.6568 12.8049C35.6568 12.3019 35.2452 11.8903 34.7421 11.8903H32.483C32.4098 11.625 32.3183 11.3781 32.1903 11.1403H34.7421C35.2452 11.1403 35.6568 10.7287 35.6568 10.2257C35.6568 9.72262 35.2452 9.31104 34.7421 9.31104H27.0592C26.5561 9.31104 26.1446 9.72262 26.1446 10.2257C26.1446 10.7287 26.5561 11.1403 27.0592 11.1403H29.1354C29.7116 11.1403 30.2147 11.4421 30.5074 11.8903H27.0593C26.5562 11.8903 26.1445 12.3018 26.1445 12.8049Z" fill="#ED5D41"/>
</svg>
